<svg width="20" height="20" viewBox="0 0 20 20" fill="none" xmlns="http://www.w3.org/2000/svg">
<path d="M13.3475 1.66675H6.62249C5.30845 1.66829 4.04869 2.19103 3.1196 3.12028C2.19051 4.04952 1.66798 5.30937 1.66666 6.62341L1.66666 13.3484C1.6682 14.6625 2.19094 15.9222 3.12019 16.8513C4.04943 17.7804 5.30928 18.3029 6.62332 18.3042H13.3483C14.6624 18.3027 15.9221 17.78 16.8512 16.8507C17.7803 15.9215 18.3028 14.6616 18.3042 13.3476V6.62258C18.3026 5.30854 17.7799 4.04878 16.8506 3.11969C15.9214 2.1906 14.6615 1.66807 13.3475 1.66675ZM16.6308 13.3476C16.6308 13.7788 16.5459 14.2057 16.3809 14.6041C16.2159 15.0024 15.974 15.3644 15.6692 15.6692C15.3643 15.9741 15.0023 16.216 14.604 16.381C14.2056 16.546 13.7787 16.6309 13.3475 16.6309H6.62249C5.75184 16.6307 4.91693 16.2847 4.30136 15.669C3.6858 15.0532 3.33999 14.2182 3.33999 13.3476V6.62258C3.34021 5.75193 3.68623 4.91702 4.30195 4.30145C4.91767 3.68589 5.75267 3.34008 6.62332 3.34008H13.3483C14.219 3.3403 15.0539 3.68632 15.6695 4.30204C16.285 4.91776 16.6308 5.75276 16.6308 6.62341V13.3476Z" fill="#F8F8F8"/>
<path d="M9.98499 5.68262C8.84451 5.68438 7.75126 6.13827 6.9449 6.94479C6.13854 7.75131 5.68486 8.84464 5.68332 9.98512C5.68464 11.1259 6.13834 12.2196 6.9449 13.0263C7.75147 13.833 8.84505 14.2869 9.98582 14.2885C11.1267 14.2871 12.2205 13.8333 13.0273 13.0266C13.834 12.2198 14.2878 11.126 14.2892 9.98512C14.2874 8.84435 13.8333 7.75085 13.0264 6.94445C12.2195 6.13804 11.1258 5.68455 9.98499 5.68345V5.68262ZM9.98499 12.6151C9.28769 12.6151 8.61895 12.3381 8.12588 11.8451C7.63282 11.352 7.35582 10.6832 7.35582 9.98595C7.35582 9.28865 7.63282 8.61991 8.12588 8.12685C8.61895 7.63378 9.28769 7.35678 9.98499 7.35678C10.6823 7.35678 11.351 7.63378 11.8441 8.12685C12.3372 8.61991 12.6142 9.28865 12.6142 9.98595C12.6142 10.6832 12.3372 11.352 11.8441 11.8451C11.351 12.3381 10.6823 12.6151 9.98499 12.6151Z" fill="#F8F8F8"/>
<path d="M14.2966 6.74599C14.866 6.74599 15.3275 6.28447 15.3275 5.71516C15.3275 5.14585 14.866 4.68433 14.2966 4.68433C13.7273 4.68433 13.2658 5.14585 13.2658 5.71516C13.2658 6.28447 13.7273 6.74599 14.2966 6.74599Z" fill="#F8F8F8"/>
</svg>
