<svg width="416" height="390" viewBox="0 0 416 390" fill="none" xmlns="http://www.w3.org/2000/svg">
<g clip-path="url(#clip0_718_24)">
<path d="M133.644 9.88624C134.165 9.58571 134.755 9.42749 135.357 9.42749C135.958 9.42749 136.549 9.58571 137.07 9.88624L188.047 39.2995C188.569 39.6002 189.001 40.0328 189.302 40.5538C189.603 41.0747 189.761 41.6656 189.761 42.2671V101.088C189.761 101.689 189.603 102.28 189.302 102.801C189.001 103.322 188.569 103.755 188.047 104.055L137.07 133.457C136.549 133.758 135.958 133.916 135.357 133.916C134.755 133.916 134.165 133.758 133.644 133.457L82.6666 104.044C82.1453 103.743 81.7126 103.311 81.4118 102.79C81.111 102.269 80.9529 101.678 80.9532 101.076V42.2671C80.9529 41.6656 81.111 41.0747 81.4118 40.5538C81.7126 40.0328 82.1453 39.6002 82.6666 39.2995L133.644 9.88624Z" stroke="#BBDDF6" stroke-opacity="0.3" stroke-width="8" stroke-linecap="round" stroke-linejoin="round"/>
<path d="M64.5596 120.543C65.0805 120.242 65.6714 120.084 66.2729 120.084C66.8744 120.084 67.4653 120.242 67.9862 120.543L118.963 149.956C119.485 150.257 119.917 150.689 120.218 151.21C120.519 151.731 120.677 152.322 120.677 152.924V211.744C120.677 212.346 120.519 212.937 120.218 213.458C119.917 213.979 119.485 214.411 118.963 214.712L67.9862 244.114C67.4653 244.414 66.8744 244.573 66.2729 244.573C65.6714 244.573 65.0805 244.414 64.5596 244.114L13.5825 214.701C13.0613 214.4 12.6285 213.967 12.3277 213.446C12.0269 212.925 11.8688 212.334 11.8692 211.733V152.924C11.8688 152.322 12.0269 151.731 12.3277 151.21C12.6285 150.689 13.0613 150.257 13.5825 149.956L64.5596 120.543Z" stroke="#BBDDF6" stroke-opacity="0.3" stroke-width="8" stroke-linecap="round" stroke-linejoin="round"/>
<path d="M-0.494644 9.88624C0.026272 9.58571 0.617178 9.42749 1.21868 9.42749C1.82018 9.42749 2.41109 9.58571 2.932 9.88624L53.9091 39.2995C54.4303 39.6002 54.8631 40.0328 55.1639 40.5538C55.4647 41.0747 55.6228 41.6656 55.6224 42.2671V101.088C55.6228 101.689 55.4647 102.28 55.1639 102.801C54.8631 103.322 54.4303 103.755 53.9091 104.055L2.932 133.457C2.41109 133.758 1.82018 133.916 1.21868 133.916C0.617178 133.916 0.026272 133.758 -0.494644 133.457L-51.4717 104.044C-51.993 103.743 -52.4258 103.311 -52.7265 102.79C-53.0273 102.269 -53.1854 101.678 -53.1851 101.076V42.2671C-53.1854 41.6656 -53.0273 41.0747 -52.7265 40.5538C-52.4258 40.0328 -51.993 39.6002 -51.4717 39.2995L-0.494644 9.88624Z" stroke="#BBDDF6" stroke-opacity="0.3" stroke-width="8" stroke-linecap="round" stroke-linejoin="round"/>
</g>
<path d="M327.644 121.886C328.165 121.586 328.755 121.427 329.357 121.427C329.958 121.427 330.549 121.586 331.07 121.886L382.047 151.299C382.569 151.6 383.001 152.033 383.302 152.554C383.603 153.075 383.761 153.666 383.761 154.267V213.088C383.761 213.689 383.603 214.28 383.302 214.801C383.001 215.322 382.569 215.755 382.047 216.055L331.07 245.457C330.549 245.758 329.958 245.916 329.357 245.916C328.755 245.916 328.165 245.758 327.644 245.457L276.667 216.044C276.145 215.743 275.713 215.311 275.412 214.79C275.111 214.269 274.953 213.678 274.953 213.076V154.267C274.953 153.666 275.111 153.075 275.412 152.554C275.713 152.033 276.145 151.6 276.667 151.299L327.644 121.886Z" stroke="#BBDDF6" stroke-opacity="0.3" stroke-width="8" stroke-linecap="round" stroke-linejoin="round"/>
<path d="M258.56 232.543C259.08 232.242 259.671 232.084 260.273 232.084C260.874 232.084 261.465 232.242 261.986 232.543L312.963 261.956C313.485 262.257 313.917 262.689 314.218 263.21C314.519 263.731 314.677 264.322 314.677 264.924V323.744C314.677 324.346 314.519 324.937 314.218 325.458C313.917 325.979 313.485 326.411 312.963 326.712L261.986 356.114C261.465 356.414 260.874 356.573 260.273 356.573C259.671 356.573 259.08 356.414 258.56 356.114L207.582 326.701C207.061 326.4 206.628 325.967 206.328 325.446C206.027 324.925 205.869 324.334 205.869 323.733V264.924C205.869 264.322 206.027 263.731 206.328 263.21C206.628 262.689 207.061 262.257 207.582 261.956L258.56 232.543Z" stroke="#BBDDF6" stroke-opacity="0.3" stroke-width="8" stroke-linecap="round" stroke-linejoin="round"/>
<path d="M193.505 121.886C194.026 121.586 194.617 121.427 195.219 121.427C195.82 121.427 196.411 121.586 196.932 121.886L247.909 151.299C248.43 151.6 248.863 152.033 249.164 152.554C249.465 153.075 249.623 153.666 249.622 154.267V213.088C249.623 213.689 249.465 214.28 249.164 214.801C248.863 215.322 248.43 215.755 247.909 216.055L196.932 245.457C196.411 245.758 195.82 245.916 195.219 245.916C194.617 245.916 194.026 245.758 193.505 245.457L142.528 216.044C142.007 215.743 141.574 215.311 141.273 214.79C140.973 214.269 140.815 213.678 140.815 213.076V154.267C140.815 153.666 140.973 153.075 141.273 152.554C141.574 152.033 142.007 151.6 142.528 151.299L193.505 121.886Z" stroke="#BBDDF6" stroke-opacity="0.3" stroke-width="8" stroke-linecap="round" stroke-linejoin="round"/>
<defs>
<clipPath id="clip0_718_24">
<rect width="255.235" height="284.493" fill="white"/>
</clipPath>
</defs>
</svg>
