<svg width="421" height="415" viewBox="0 0 421 415" fill="none" xmlns="http://www.w3.org/2000/svg">
<g clip-path="url(#clip0_749_3)">
<path d="M417.644 33.8862C418.165 33.5857 418.755 33.4275 419.357 33.4275C419.958 33.4275 420.549 33.5857 421.07 33.8862L472.047 63.2995C472.569 63.6002 473.001 64.0328 473.302 64.5538C473.603 65.0747 473.761 65.6656 473.761 66.2671V125.088C473.761 125.689 473.603 126.28 473.302 126.801C473.001 127.322 472.569 127.755 472.047 128.055L421.07 157.457C420.549 157.758 419.958 157.916 419.357 157.916C418.755 157.916 418.165 157.758 417.644 157.457L366.667 128.044C366.145 127.743 365.713 127.311 365.412 126.79C365.111 126.269 364.953 125.678 364.953 125.076V66.2671C364.953 65.6656 365.111 65.0747 365.412 64.5538C365.713 64.0328 366.145 63.6002 366.667 63.2995L417.644 33.8862Z" stroke="#BBDDF6" stroke-opacity="0.3" stroke-width="8" stroke-linecap="round" stroke-linejoin="round"/>
<path d="M348.56 144.543C349.08 144.242 349.671 144.084 350.273 144.084C350.874 144.084 351.465 144.242 351.986 144.543L402.963 173.956C403.485 174.257 403.917 174.689 404.218 175.21C404.519 175.731 404.677 176.322 404.677 176.924V235.744C404.677 236.346 404.519 236.937 404.218 237.458C403.917 237.979 403.485 238.411 402.963 238.712L351.986 268.114C351.465 268.414 350.874 268.573 350.273 268.573C349.671 268.573 349.08 268.414 348.56 268.114L297.582 238.701C297.061 238.4 296.628 237.967 296.328 237.446C296.027 236.925 295.869 236.334 295.869 235.733V176.924C295.869 176.322 296.027 175.731 296.328 175.21C296.628 174.689 297.061 174.257 297.582 173.956L348.56 144.543Z" stroke="#BBDDF6" stroke-opacity="0.3" stroke-width="8" stroke-linecap="round" stroke-linejoin="round"/>
<path d="M283.505 33.8862C284.026 33.5857 284.617 33.4275 285.219 33.4275C285.82 33.4275 286.411 33.5857 286.932 33.8862L337.909 63.2995C338.43 63.6002 338.863 64.0328 339.164 64.5538C339.465 65.0747 339.623 65.6656 339.622 66.2671V125.088C339.623 125.689 339.465 126.28 339.164 126.801C338.863 127.322 338.43 127.755 337.909 128.055L286.932 157.457C286.411 157.758 285.82 157.916 285.219 157.916C284.617 157.916 284.026 157.758 283.505 157.457L232.528 128.044C232.007 127.743 231.574 127.311 231.273 126.79C230.973 126.269 230.815 125.678 230.815 125.076V66.2671C230.815 65.6656 230.973 65.0747 231.273 64.5538C231.574 64.0328 232.007 63.6002 232.528 63.2995L283.505 33.8862Z" stroke="#BBDDF6" stroke-opacity="0.3" stroke-width="8" stroke-linecap="round" stroke-linejoin="round"/>
</g>
<path d="M219.644 146.886C220.165 146.586 220.755 146.427 221.357 146.427C221.958 146.427 222.549 146.586 223.07 146.886L274.047 176.299C274.569 176.6 275.001 177.033 275.302 177.554C275.603 178.075 275.761 178.666 275.761 179.267V238.088C275.761 238.689 275.603 239.28 275.302 239.801C275.001 240.322 274.569 240.755 274.047 241.055L223.07 270.457C222.549 270.758 221.958 270.916 221.357 270.916C220.755 270.916 220.165 270.758 219.644 270.457L168.667 241.044C168.145 240.743 167.713 240.311 167.412 239.79C167.111 239.269 166.953 238.678 166.953 238.076V179.267C166.953 178.666 167.111 178.075 167.412 177.554C167.713 177.033 168.145 176.6 168.667 176.299L219.644 146.886Z" stroke="#BBDDF6" stroke-opacity="0.3" stroke-width="8" stroke-linecap="round" stroke-linejoin="round"/>
<path d="M150.56 257.543C151.08 257.242 151.671 257.084 152.273 257.084C152.874 257.084 153.465 257.242 153.986 257.543L204.963 286.956C205.485 287.257 205.917 287.689 206.218 288.21C206.519 288.731 206.677 289.322 206.677 289.924V348.744C206.677 349.346 206.519 349.937 206.218 350.458C205.917 350.979 205.485 351.411 204.963 351.712L153.986 381.114C153.465 381.414 152.874 381.573 152.273 381.573C151.671 381.573 151.08 381.414 150.56 381.114L99.5825 351.701C99.0612 351.4 98.6284 350.967 98.3277 350.446C98.0269 349.925 97.8688 349.334 97.8691 348.733V289.924C97.8688 289.322 98.0269 288.731 98.3277 288.21C98.6284 287.689 99.0612 287.257 99.5825 286.956L150.56 257.543Z" stroke="#BBDDF6" stroke-opacity="0.3" stroke-width="8" stroke-linecap="round" stroke-linejoin="round"/>
<path d="M85.5054 146.886C86.0263 146.586 86.6172 146.427 87.2187 146.427C87.8202 146.427 88.4111 146.586 88.932 146.886L139.909 176.299C140.43 176.6 140.863 177.033 141.164 177.554C141.465 178.075 141.623 178.666 141.622 179.267V238.088C141.623 238.689 141.465 239.28 141.164 239.801C140.863 240.322 140.43 240.755 139.909 241.055L88.932 270.457C88.4111 270.758 87.8202 270.916 87.2187 270.916C86.6172 270.916 86.0263 270.758 85.5054 270.457L34.5283 241.044C34.007 240.743 33.5742 240.311 33.2735 239.79C32.9727 239.269 32.8146 238.678 32.8149 238.076V179.267C32.8146 178.666 32.9727 178.075 33.2735 177.554C33.5742 177.033 34.007 176.6 34.5283 176.299L85.5054 146.886Z" stroke="#BBDDF6" stroke-opacity="0.3" stroke-width="8" stroke-linecap="round" stroke-linejoin="round"/>
<defs>
<clipPath id="clip0_749_3">
<rect width="256.261" height="302" fill="white" transform="translate(164.739)"/>
</clipPath>
</defs>
</svg>
